<?xml version="1.0" standalone="no"?>
<!DOCTYPE svg PUBLIC "-//W3C//DTD SVG 20010904//EN"
 "http://www.w3.org/TR/2001/REC-SVG-20010904/DTD/svg10.dtd">
<svg version="1.0" xmlns="http://www.w3.org/2000/svg"
 width="700.000000pt" height="700.000000pt" viewBox="0 0 700.000000 700.000000"
 preserveAspectRatio="xMidYMid meet">
<metadata>
Created by potrace 1.14, written by Peter Selinger 2001-2017
</metadata>
<g transform="translate(0.000000,700.000000) scale(0.100000,-0.100000)"
fill="#000000" stroke="none">
<path d="M3607 6994 c-1 -1 -49 -5 -107 -8 -58 -4 -117 -8 -130 -10 -31 -5
-177 -19 -207 -19 -21 -1 -34 -16 -15 -18 33 -3 71 -11 158 -33 299 -76 533
-187 672 -320 91 -86 172 -222 198 -333 14 -59 13 -278 -2 -348 -16 -76 -59
-228 -74 -260 -5 -11 -19 -44 -30 -73 -41 -107 -141 -305 -292 -577 -172 -312
-202 -372 -246 -495 -30 -87 -67 -233 -76 -305 -3 -22 -8 -65 -12 -95 -9 -72
-7 -356 2 -372 5 -9 4 -10 -3 -3 -10 11 -85 240 -102 315 -19 85 -25 145 -26
245 0 249 41 411 254 990 116 314 152 450 167 620 10 124 10 148 -2 250 -36
285 -182 506 -434 655 -182 107 -423 143 -650 96 -14 -3 -38 -8 -55 -12 -81
-16 -249 -74 -355 -122 -66 -30 -491 -264 -487 -269 2 -1 19 2 38 7 19 5 86
18 149 29 598 102 964 -19 1131 -374 46 -98 74 -200 99 -367 9 -61 6 -572 -3
-613 -3 -11 -8 -65 -12 -120 -4 -55 -9 -107 -10 -116 -3 -16 -11 -102 -20
-224 -6 -66 -5 -262 0 -310 25 -233 79 -412 190 -638 47 -93 44 -99 -14 -34
-20 23 -49 54 -64 70 -61 62 -155 196 -199 282 -74 143 -122 307 -148 505 -6
47 -13 96 -15 110 -3 25 -11 129 -20 265 -3 39 -7 103 -10 143 -3 39 -7 107
-10 150 -3 42 -8 97 -11 122 -3 25 -7 65 -10 90 -2 25 -6 52 -9 60 -2 8 -7 31
-10 50 -27 160 -100 344 -192 481 -218 327 -668 462 -1040 313 -183 -73 -408
-249 -580 -454 -72 -85 -301 -400 -285 -391 9 5 45 30 79 55 91 67 213 142
313 192 49 24 91 44 94 44 4 0 25 9 49 19 100 46 268 79 380 75 317 -13 569
-237 763 -678 19 -44 40 -90 45 -101 20 -43 95 -251 174 -480 124 -362 168
-457 295 -637 69 -98 242 -280 348 -367 35 -28 61 -51 58 -51 -16 0 -264 117
-324 153 -240 144 -411 357 -652 812 -29 55 -73 138 -97 185 -156 295 -266
454 -402 582 -203 191 -402 271 -656 263 -279 -8 -515 -131 -684 -356 -153
-202 -237 -413 -327 -819 -4 -19 -8 -37 -9 -40 -10 -43 -26 -120 -25 -122 1
-2 -3 -15 -9 -30 -18 -47 -5 -32 50 60 351 586 705 794 1113 656 104 -36 294
-144 378 -216 14 -13 56 -48 92 -78 74 -62 296 -286 491 -495 171 -183 215
-226 319 -314 142 -118 414 -250 644 -311 45 -12 82 -23 82 -25 0 -5 -338 3
-385 10 -267 37 -569 198 -929 496 -83 69 -339 262 -406 306 -178 118 -369
198 -550 228 -47 8 -184 8 -240 0 -314 -45 -605 -282 -702 -570 -16 -46 -34
-111 -45 -160 -25 -115 -25 -464 1 -591 2 -12 7 -37 10 -55 6 -36 9 -52 27
-139 6 -30 12 -59 13 -65 24 -128 40 -204 44 -201 2 3 5 22 7 43 4 45 15 137
21 167 2 11 6 38 10 61 11 79 53 241 83 324 157 429 453 607 898 541 233 -35
393 -88 885 -296 297 -125 420 -170 519 -189 141 -28 239 -38 362 -37 87 0
225 9 268 17 13 3 41 7 63 11 22 3 44 8 48 10 5 3 8 1 8 -4 0 -13 -235 -114
-335 -145 -44 -13 -102 -28 -128 -32 -27 -3 -59 -9 -70 -11 -33 -7 -246 -7
-297 0 -25 4 -63 9 -85 11 -22 3 -51 7 -65 10 -14 3 -36 7 -50 10 -106 20
-139 27 -488 114 -156 39 -305 73 -330 77 -26 3 -50 8 -54 10 -15 10 -164 19
-288 18 -315 -1 -549 -103 -721 -314 -132 -161 -198 -331 -204 -530 -2 -58 0
-125 5 -150 4 -25 11 -63 14 -85 19 -118 141 -402 233 -543 76 -116 275 -393
280 -389 2 3 -9 47 -26 98 -29 92 -49 163 -57 204 -2 11 -10 54 -19 95 -18 91
-26 177 -26 290 -3 360 174 605 526 728 67 24 210 59 269 66 21 3 46 7 55 10
9 2 54 7 101 11 47 4 99 8 115 10 17 2 145 6 285 9 461 12 524 15 615 26 242
29 500 126 730 275 l88 56 -34 -42 c-63 -80 -244 -256 -309 -301 -91 -63 -181
-110 -292 -152 -84 -31 -213 -70 -265 -80 -10 -2 -63 -13 -118 -25 -55 -11
-176 -34 -270 -50 -209 -37 -220 -39 -270 -46 -22 -4 -60 -11 -85 -17 -25 -5
-58 -12 -75 -15 -54 -9 -258 -80 -338 -118 -350 -165 -547 -453 -549 -805 -1
-161 20 -259 87 -395 116 -234 333 -440 687 -652 84 -50 180 -106 213 -124
l60 -33 -67 73 c-79 85 -198 240 -255 331 -204 327 -232 599 -88 855 129 231
421 436 980 690 323 147 517 254 635 351 132 109 260 253 373 421 31 48 57 83
57 79 0 -4 -23 -75 -51 -159 -58 -174 -110 -280 -190 -387 -137 -183 -270
-293 -719 -595 -330 -222 -327 -219 -453 -335 -58 -52 -70 -65 -132 -135 -94
-105 -190 -294 -219 -431 -22 -101 -15 -286 14 -388 89 -314 292 -521 633
-647 100 -37 287 -86 376 -99 149 -21 159 -22 368 -45 27 -3 62 -8 78 -11 17
-3 -49 35 -145 83 -414 208 -634 425 -693 683 -59 252 44 547 316 905 53 68
210 260 227 275 3 3 34 39 70 80 36 41 77 88 91 105 186 210 264 321 344 483
80 162 132 335 173 577 8 50 8 49 22 -60 19 -155 20 -350 3 -443 -46 -252
-119 -405 -443 -921 -214 -341 -278 -469 -329 -653 -32 -117 -33 -126 -36
-265 -7 -256 73 -453 258 -636 181 -179 386 -256 676 -255 129 0 190 6 345 32
63 10 181 42 336 91 80 25 167 52 194 60 26 7 50 16 52 18 3 2 -52 5 -120 6
-69 0 -142 3 -163 5 -21 3 -65 7 -98 11 -418 45 -692 208 -801 476 -63 153
-76 411 -34 629 6 30 13 67 15 81 18 100 66 277 140 519 153 496 171 588 162
850 -6 173 -8 191 -33 305 -9 39 -17 77 -19 85 -4 20 -25 97 -32 118 -3 9 6 0
21 -20 14 -20 26 -39 26 -42 0 -3 15 -29 33 -58 87 -137 151 -309 181 -483 12
-75 14 -400 2 -465 -2 -14 -7 -51 -11 -84 -4 -32 -8 -68 -10 -80 -6 -34 -27
-177 -30 -208 -9 -65 -26 -186 -29 -204 -2 -10 -7 -50 -11 -89 -4 -38 -9 -79
-11 -90 -6 -25 -5 -301 0 -338 35 -248 99 -407 222 -551 126 -147 343 -267
529 -293 368 -49 716 106 1179 527 45 40 46 42 106 94 24 22 38 37 30 34 -8
-4 -69 -30 -134 -58 -250 -107 -484 -161 -671 -155 -123 4 -142 7 -235 37
-295 96 -474 383 -575 923 -8 42 -45 292 -50 340 -3 28 -7 61 -10 75 -2 14 -7
52 -10 84 -3 33 -8 73 -10 90 -2 17 -7 51 -10 76 -3 25 -7 54 -9 65 -2 11 -7
41 -10 66 -34 250 -188 583 -376 807 -27 33 -50 63 -50 67 0 7 45 -24 175
-121 140 -104 278 -263 359 -413 74 -139 142 -333 256 -732 44 -156 95 -322
111 -369 33 -90 131 -294 155 -321 8 -8 14 -19 14 -23 0 -5 18 -31 41 -60 202
-255 428 -369 731 -367 374 3 680 231 941 702 14 25 67 135 117 245 51 109 94
203 97 208 3 5 -66 -63 -153 -150 -166 -166 -288 -262 -424 -333 -256 -132
-490 -133 -712 0 -141 83 -271 208 -411 396 -95 127 -169 242 -352 546 -82
136 -179 287 -215 334 -76 101 -214 243 -297 305 -32 23 -60 45 -63 49 -5 5
-72 50 -115 76 -19 11 -125 68 -187 100 -32 17 -36 23 -10 17 9 -2 64 -13 122
-25 298 -60 499 -170 725 -394 118 -117 187 -194 395 -445 155 -186 303 -342
395 -417 144 -116 329 -210 470 -237 17 -4 41 -9 55 -11 48 -10 185 -7 250 4
342 62 597 284 714 625 28 80 62 216 71 281 3 22 7 54 10 70 11 74 17 198 19
404 1 121 1 221 0 221 -1 0 -15 -37 -29 -82 -155 -473 -375 -763 -649 -858
-224 -77 -493 -23 -832 166 -140 78 -268 161 -519 338 -110 77 -236 162 -280
190 -183 113 -409 201 -600 231 -11 2 -33 6 -50 8 -46 9 -123 17 -199 22 -38
2 -71 6 -73 8 -3 4 39 14 222 53 91 19 267 23 374 8 206 -29 374 -88 701 -247
102 -49 248 -120 325 -157 349 -168 599 -226 850 -197 354 41 657 320 740 681
19 80 25 246 13 349 -11 100 -54 280 -93 395 -31 91 -137 344 -191 456 -23 47
-25 48 -19 16 19 -114 26 -396 13 -525 -28 -269 -116 -470 -262 -594 -29 -24
-66 -52 -84 -61 -17 -10 -37 -22 -44 -27 -28 -22 -159 -62 -253 -78 -130 -22
-408 -23 -522 -1 -11 3 -44 7 -74 11 -30 3 -79 11 -109 16 -30 6 -66 12 -80
14 -14 1 -72 12 -130 23 -58 12 -116 24 -130 26 -14 3 -61 12 -105 20 -44 8
-93 18 -110 21 -144 28 -224 36 -349 37 -107 1 -225 -8 -291 -22 -22 -5 -56
-12 -75 -15 -56 -10 -201 -53 -284 -85 -42 -17 -80 -30 -84 -30 -8 0 155 120
225 166 108 69 281 143 377 160 17 3 49 9 72 14 113 25 207 27 989 18 288 -3
349 0 470 26 400 85 648 307 745 666 24 90 32 258 17 352 -36 227 -194 495
-432 734 -87 87 -290 274 -330 304 -16 13 -15 8 7 -30 58 -102 73 -128 108
-200 57 -115 109 -254 138 -365 21 -83 25 -123 26 -240 0 -126 -3 -147 -26
-216 -37 -107 -88 -188 -166 -267 -172 -174 -442 -295 -908 -408 -182 -44
-161 -39 -209 -49 -103 -20 -398 -97 -465 -121 -175 -62 -363 -170 -505 -289
-38 -33 -72 -62 -75 -65 -42 -42 -132 -123 -128 -115 32 61 130 224 166 275
109 156 300 310 517 418 129 64 186 89 500 215 287 116 384 160 493 224 417
247 600 605 518 1014 -41 201 -169 403 -332 525 -22 16 -41 31 -44 35 -11 12
-100 69 -175 111 -127 71 -244 120 -484 202 -206 70 -269 87 -209 55 12 -6 35
-21 50 -33 28 -23 56 -44 102 -79 58 -44 123 -103 210 -191 256 -262 351 -527
282 -786 -60 -221 -277 -491 -586 -730 -25 -19 -47 -37 -50 -40 -3 -3 -95 -73
-205 -156 -110 -82 -205 -153 -212 -159 -7 -5 -18 -14 -25 -20 -261 -200 -451
-456 -574 -772 -15 -40 -32 -73 -36 -73 -5 0 -7 3 -5 8 3 4 8 45 12 92 4 47 9
94 11 105 2 11 7 39 10 62 26 193 123 404 271 593 90 115 172 205 424 464 97
100 191 199 210 221 19 22 40 47 48 55 61 63 169 231 220 340 113 241 124 476
34 705 -137 349 -432 548 -875 590 -61 6 -286 13 -291 9z"/>
</g>
</svg>
